<mxfile host="Electron" modified="2023-10-10T11:22:28.927Z" agent="Mozilla/5.0 (Windows NT 10.0; Win64; x64) AppleWebKit/537.36 (KHTML, like Gecko) draw.io/22.0.2 Chrome/114.0.5735.289 Electron/25.8.4 Safari/537.36" etag="GiAz1qnGPwEWtsNp9uOf" version="22.0.2" type="device">
  <diagram name="Page-1" id="ieuyb4vflH-HwAVy1ZwS">
    <mxGraphModel dx="1036" dy="1706" grid="1" gridSize="10" guides="1" tooltips="1" connect="1" arrows="1" fold="1" page="1" pageScale="1" pageWidth="850" pageHeight="1100" math="0" shadow="0">
      <root>
        <mxCell id="0" />
        <mxCell id="1" parent="0" />
        <mxCell id="NiBR0CxUruw_FHS2o9U6-1" value="User" style="shape=umlActor;verticalLabelPosition=bottom;verticalAlign=top;html=1;outlineConnect=0;" vertex="1" parent="1">
          <mxGeometry x="100" y="140" width="30" height="60" as="geometry" />
        </mxCell>
        <mxCell id="NiBR0CxUruw_FHS2o9U6-4" value="&lt;b&gt;User&lt;/b&gt;: The Podcast Manager (admin)&lt;br&gt;&lt;b&gt;User Interaction&lt;/b&gt;: The interface that the user uses.&lt;br&gt;&lt;b&gt;List of Users&lt;/b&gt;: All of the User accounts&lt;br&gt;&lt;b&gt;Database Server&lt;/b&gt;: Where the User information is stored" style="rounded=1;whiteSpace=wrap;html=1;align=left;" vertex="1" parent="1">
          <mxGeometry x="30" y="270" width="310" height="80" as="geometry" />
        </mxCell>
        <mxCell id="NiBR0CxUruw_FHS2o9U6-11" style="edgeStyle=orthogonalEdgeStyle;rounded=0;orthogonalLoop=1;jettySize=auto;html=1;endArrow=none;endFill=0;" edge="1" parent="1" source="NiBR0CxUruw_FHS2o9U6-6">
          <mxGeometry relative="1" as="geometry">
            <mxPoint x="590" y="180" as="targetPoint" />
          </mxGeometry>
        </mxCell>
        <mxCell id="NiBR0CxUruw_FHS2o9U6-6" value="&amp;lt;&amp;lt;user interaction&amp;gt;&amp;gt;&lt;br&gt;User Interaction" style="whiteSpace=wrap;html=1;aspect=fixed;rounded=1;" vertex="1" parent="1">
          <mxGeometry x="340" y="140" width="80" height="80" as="geometry" />
        </mxCell>
        <mxCell id="NiBR0CxUruw_FHS2o9U6-7" style="edgeStyle=orthogonalEdgeStyle;rounded=0;orthogonalLoop=1;jettySize=auto;html=1;entryX=-0.01;entryY=0.377;entryDx=0;entryDy=0;entryPerimeter=0;startArrow=none;startFill=0;endArrow=none;endFill=0;" edge="1" parent="1" source="NiBR0CxUruw_FHS2o9U6-1" target="NiBR0CxUruw_FHS2o9U6-6">
          <mxGeometry relative="1" as="geometry" />
        </mxCell>
        <mxCell id="NiBR0CxUruw_FHS2o9U6-8" value="1. Request Users" style="text;html=1;align=center;verticalAlign=middle;resizable=0;points=[];autosize=1;strokeColor=default;fillColor=none;rounded=1;" vertex="1" parent="1">
          <mxGeometry x="190" y="110" width="120" height="30" as="geometry" />
        </mxCell>
        <mxCell id="NiBR0CxUruw_FHS2o9U6-10" value="View Users Interaction Diagram" style="rounded=1;whiteSpace=wrap;html=1;" vertex="1" parent="1">
          <mxGeometry x="460" y="-10" width="260" height="60" as="geometry" />
        </mxCell>
        <mxCell id="NiBR0CxUruw_FHS2o9U6-12" value="2. Send Request" style="text;html=1;align=center;verticalAlign=middle;resizable=0;points=[];autosize=1;strokeColor=default;fillColor=none;rounded=1;" vertex="1" parent="1">
          <mxGeometry x="430" y="120" width="110" height="30" as="geometry" />
        </mxCell>
        <mxCell id="NiBR0CxUruw_FHS2o9U6-20" style="edgeStyle=orthogonalEdgeStyle;rounded=0;orthogonalLoop=1;jettySize=auto;html=1;entryX=0;entryY=0.5;entryDx=0;entryDy=0;endArrow=none;endFill=0;" edge="1" parent="1" source="NiBR0CxUruw_FHS2o9U6-13" target="NiBR0CxUruw_FHS2o9U6-14">
          <mxGeometry relative="1" as="geometry" />
        </mxCell>
        <mxCell id="NiBR0CxUruw_FHS2o9U6-13" value="&amp;lt;&amp;lt;entity&amp;gt;&amp;gt;&lt;br&gt;List of Users" style="whiteSpace=wrap;html=1;aspect=fixed;rounded=1;" vertex="1" parent="1">
          <mxGeometry x="550" y="140" width="80" height="80" as="geometry" />
        </mxCell>
        <mxCell id="NiBR0CxUruw_FHS2o9U6-14" value="&amp;lt;&amp;lt;external system&amp;gt;&amp;gt;&lt;br&gt;Database Server" style="whiteSpace=wrap;html=1;aspect=fixed;" vertex="1" parent="1">
          <mxGeometry x="760" y="140" width="80" height="80" as="geometry" />
        </mxCell>
        <mxCell id="NiBR0CxUruw_FHS2o9U6-18" value="" style="endArrow=blockThin;html=1;rounded=0;strokeWidth=3;endFill=1;" edge="1" parent="1">
          <mxGeometry width="50" height="50" relative="1" as="geometry">
            <mxPoint x="450" y="160" as="sourcePoint" />
            <mxPoint x="520" y="160" as="targetPoint" />
            <Array as="points">
              <mxPoint x="490" y="160" />
            </Array>
          </mxGeometry>
        </mxCell>
        <mxCell id="NiBR0CxUruw_FHS2o9U6-19" value="" style="endArrow=blockThin;html=1;rounded=0;strokeWidth=3;endFill=1;" edge="1" parent="1">
          <mxGeometry width="50" height="50" relative="1" as="geometry">
            <mxPoint x="215" y="150" as="sourcePoint" />
            <mxPoint x="285" y="150" as="targetPoint" />
            <Array as="points">
              <mxPoint x="255" y="150" />
            </Array>
          </mxGeometry>
        </mxCell>
        <mxCell id="NiBR0CxUruw_FHS2o9U6-21" value="3. Send Request" style="text;html=1;align=center;verticalAlign=middle;resizable=0;points=[];autosize=1;strokeColor=default;fillColor=none;rounded=1;" vertex="1" parent="1">
          <mxGeometry x="640" y="130" width="110" height="30" as="geometry" />
        </mxCell>
        <mxCell id="NiBR0CxUruw_FHS2o9U6-22" value="" style="endArrow=blockThin;html=1;rounded=0;strokeWidth=3;endFill=1;" edge="1" parent="1">
          <mxGeometry width="50" height="50" relative="1" as="geometry">
            <mxPoint x="660" y="169.5" as="sourcePoint" />
            <mxPoint x="730" y="169.5" as="targetPoint" />
            <Array as="points">
              <mxPoint x="700" y="169.5" />
            </Array>
          </mxGeometry>
        </mxCell>
        <mxCell id="NiBR0CxUruw_FHS2o9U6-25" value="4. Sends Info" style="rounded=1;whiteSpace=wrap;html=1;" vertex="1" parent="1">
          <mxGeometry x="635" y="230" width="120" height="30" as="geometry" />
        </mxCell>
        <mxCell id="NiBR0CxUruw_FHS2o9U6-26" value="" style="endArrow=blockThin;html=1;rounded=0;strokeWidth=3;endFill=1;entryX=0.25;entryY=1;entryDx=0;entryDy=0;" edge="1" parent="1">
          <mxGeometry width="50" height="50" relative="1" as="geometry">
            <mxPoint x="740" y="219" as="sourcePoint" />
            <mxPoint x="650" y="220" as="targetPoint" />
            <Array as="points" />
          </mxGeometry>
        </mxCell>
        <mxCell id="NiBR0CxUruw_FHS2o9U6-29" value="5. Sends Info" style="rounded=1;whiteSpace=wrap;html=1;" vertex="1" parent="1">
          <mxGeometry x="425" y="231" width="120" height="30" as="geometry" />
        </mxCell>
        <mxCell id="NiBR0CxUruw_FHS2o9U6-30" value="" style="endArrow=blockThin;html=1;rounded=0;strokeWidth=3;endFill=1;entryX=0.25;entryY=1;entryDx=0;entryDy=0;" edge="1" parent="1">
          <mxGeometry width="50" height="50" relative="1" as="geometry">
            <mxPoint x="530" y="220" as="sourcePoint" />
            <mxPoint x="440" y="221" as="targetPoint" />
            <Array as="points" />
          </mxGeometry>
        </mxCell>
        <mxCell id="NiBR0CxUruw_FHS2o9U6-31" value="6. Displays Users" style="rounded=1;whiteSpace=wrap;html=1;" vertex="1" parent="1">
          <mxGeometry x="190" y="211" width="120" height="30" as="geometry" />
        </mxCell>
        <mxCell id="NiBR0CxUruw_FHS2o9U6-32" value="" style="endArrow=blockThin;html=1;rounded=0;strokeWidth=3;endFill=1;entryX=0.25;entryY=1;entryDx=0;entryDy=0;" edge="1" parent="1">
          <mxGeometry width="50" height="50" relative="1" as="geometry">
            <mxPoint x="295" y="200" as="sourcePoint" />
            <mxPoint x="205" y="201" as="targetPoint" />
            <Array as="points" />
          </mxGeometry>
        </mxCell>
        <mxCell id="NiBR0CxUruw_FHS2o9U6-34" value="&lt;font style=&quot;font-size: 14px;&quot;&gt;1. User is logged in and clicks Request Users which is sent to the User Interaction.&lt;br&gt;2. User Interaction submits a request to the List of Users.&lt;br&gt;3. List of Users calls to Database Server.&lt;br&gt;4. Database Server responds to List of Users with user information.&lt;br&gt;5. List of Users returns user information to User Interaction.&lt;br&gt;6. User interaction displays the users.&lt;/font&gt;" style="rounded=1;whiteSpace=wrap;html=1;align=left;" vertex="1" parent="1">
          <mxGeometry x="80" y="380" width="650" height="120" as="geometry" />
        </mxCell>
      </root>
    </mxGraphModel>
  </diagram>
</mxfile>
